<?xml version="1.0" encoding="UTF-8"?>
<svg id="Layer_1" data-name="Layer 1" xmlns="http://www.w3.org/2000/svg" viewBox="0 0 149.63 22.1">
  <defs>
    <style>
      .cls-1 {
        fill: #ac2d24;
      }

      .cls-1, .cls-2, .cls-3, .cls-4 {
        stroke-width: 0px;
      }

      .cls-2 {
        fill: #0054a6;
      }

      .cls-3 {
        fill: #0054a5;
      }

      .cls-4 {
        fill: #ac2c24;
      }
    </style>
  </defs>
  <g>
    <g>
      <path class="cls-2" d="M38.23,8.85h1.7v12.7h-1.8v-9.8l-3.9,4.9h-.3l-3.9-4.9v9.8h-1.8v-12.7h1.7l4.2,5.2,4.2-5.2h-.1Z"/>
      <path class="cls-2" d="M48.83,8.65c2,0,3.6.6,4.9,1.9,1.3,1.2,2,2.8,2,4.7s-.7,3.4-2,4.6-3,1.8-5,1.8-3.5-.6-4.8-1.8c-1.3-1.2-1.9-2.8-1.9-4.6s.6-3.5,1.9-4.7c1.3-1.2,2.9-1.9,4.9-1.9ZM48.93,10.35c-1.4,0-2.6.5-3.6,1.4-.9.9-1.4,2.1-1.4,3.5s.5,2.5,1.4,3.4,2.1,1.4,3.5,1.4,2.6-.5,3.5-1.4,1.4-2.1,1.4-3.5-.5-2.5-1.4-3.4-2.1-1.4-3.5-1.4h.1Z"/>
      <path class="cls-2" d="M67.93,8.85h1.7v12.7h-1.6l-8.5-9.7v9.7h-1.7v-12.7h1.5l8.5,9.8v-9.8h.1Z"/>
      <path class="cls-2" d="M72.43,8.85h7.2v1.6h-5.4v3.9h5.2v1.6h-5.2v3.9h5.5v1.6h-7.3s0-12.6,0-12.6Z"/>
      <path class="cls-2" d="M89.33,8.85h2.2l-4.7,6v6.7h-1.9v-6.7l-4.7-6h2.2l3.4,4.4,3.4-4.4h.1Z"/>
    </g>
    <g>
      <path class="cls-1" d="M93.23,8.85h5.5c1.3,0,2.3.3,3.1.9.7.6,1.1,1.4,1.1,2.2s-.6,1.9-1.7,2.5c.9.2,1.5.6,2,1.2s.7,1.3.7,2c0,1.1-.4,2-1.1,2.7-.8.7-1.9,1-3.3,1h-6.2v-12.7l-.1.2ZM96.33,11.15v2.7h1.6c.5,0,.9-.1,1.2-.4.3-.3.4-.6.4-1s-.1-.7-.4-1-.7-.4-1.2-.4h-1.6v.1ZM96.33,16.25v3h1.8c.8,0,1.4-.1,1.8-.3.4-.2.6-.6.6-1.2s-.2-.8-.5-1c-.4-.3-.8-.4-1.4-.4h-2.2l-.1-.1Z"/>
      <path class="cls-1" d="M112.83,8.65c2.2,0,3.9.7,5.2,2,1.3,1.3,2,2.8,2,4.5s-.7,3.3-2,4.6c-1.4,1.3-3.1,1.9-5.2,1.9s-3.9-.6-5.2-1.9c-1.3-1.3-2-2.8-2-4.6s.7-3.2,2-4.5,3.1-1.9,5.2-1.9v-.1ZM112.83,19.05c1.2,0,2.2-.4,2.9-1.1.7-.7,1.1-1.6,1.1-2.8s-.4-2.1-1.1-2.8-1.7-1.1-2.9-1.1-2.2.4-2.9,1.1c-.7.7-1.1,1.6-1.1,2.8s.4,2.1,1.1,2.8c.7.7,1.7,1.1,2.9,1.1Z"/>
      <path class="cls-1" d="M133.93,8.85l-4.9,6.1,5.5,6.6h-4.1l-3.4-4.2-3.4,4.2h-4l5.4-6.6-5.1-6.1h4.1l3,3.7,3-3.7h4-.1Z"/>
      <path class="cls-1" d="M149.03,8.85l-4.9,6.1,5.5,6.6h-4.1l-3.4-4.2-3.4,4.2h-4l5.4-6.6-5.1-6.1h4.1l3,3.7,3-3.7h4-.1Z"/>
    </g>
  </g>
  <g>
    <path class="cls-4" d="M3.94,13.5c-.2,0-.36.16-.36.36v6.45c0,.2.16.36.36.36s.36-.16.36-.36v-6.45c0-.2-.16-.36-.36-.36Z"/>
    <path class="cls-3" d="M21.74,15.63l-8.55,1.42.3.3s0,0,.02.01c.37.37.56.88.54,1.4-.03.52-.28,1.01-.69,1.34-.34.28-.76.41-1.17.41-.5,0-1-.19-1.37-.57l-2.08-2.08c-.14-.14-.14-.37,0-.51.14-.14.36-.14.51,0l2.08,2.08c.44.44,1.12.49,1.59.11.25-.21.4-.5.42-.82.02-.31-.1-.62-.32-.85,0,0-.01,0-.02-.01l-2.32-2.85c-.41-.5-1.02-.8-1.67-.8h-3.99v5.73h.54l3.7,1.6c1.84.8,3.95.72,5.73-.23l7.01-3.73s.13-.06.19-.09c.48-.21.75-.32.75-.96,0-.23-.06-.42-.19-.57-.24-.27-.62-.4-1-.35Z"/>
    <rect class="cls-3" y="13.5" width="2.87" height="7.16"/>
    <path class="cls-4" d="M8.38,7.1c-1.75.32-2.91,2-2.6,3.75.32,1.75,2,2.91,3.75,2.6,1.75-.32,2.91-2,2.59-3.75-.31-1.75-2-2.91-3.75-2.6Z"/>
    <path class="cls-4" d="M5.14,9.29c.05-.19-.07-.39-.26-.44-.19-.05-.39.07-.44.26-.1.38-.15.77-.15,1.16,0,.2.16.36.36.36s.36-.16.36-.36c0-.33.04-.66.12-.98Z"/>
    <path class="cls-4" d="M5.18,8.2c.06.04.13.06.2.06.12,0,.23-.06.3-.16.73-1.1,1.96-1.76,3.28-1.76.2,0,.36-.16.36-.36s-.16-.36-.36-.36c-1.56,0-3.01.78-3.88,2.08-.11.16-.06.39.1.5Z"/>
    <path class="cls-4" d="M21.48,11.19c-.32-1.75-2-2.91-3.75-2.6-1.75.32-2.92,2-2.6,3.75.32,1.75,2,2.91,3.75,2.6,1.75-.32,2.92-2,2.6-3.75Z"/>
    <path class="cls-4" d="M19.29,7.95c.2.05.39-.07.44-.26.05-.19-.07-.39-.26-.44-.38-.1-.77-.15-1.16-.15-.2,0-.36.16-.36.36s.16.36.36.36c.33,0,.66.04.98.12Z"/>
    <path class="cls-4" d="M20.39,7.99c-.04.06-.06.13-.06.2,0,.12.06.23.16.3,1.1.74,1.76,1.96,1.76,3.28,0,.2.16.36.36.36s.36-.16.36-.36c0-1.56-.78-3.02-2.08-3.88-.16-.11-.39-.06-.5.1Z"/>
    <path class="cls-4" d="M17.65,3.48c-.66-1.66-2.53-2.47-4.18-1.82-1.65.65-2.47,2.53-1.82,4.18.65,1.66,2.53,2.47,4.18,1.82,1.65-.65,2.47-2.53,1.82-4.18Z"/>
    <path class="cls-4" d="M14.88.72c.2.01.36-.14.38-.34.01-.2-.14-.37-.34-.38-.39-.02-.78,0-1.17.08-.19.04-.32.23-.28.42.04.19.23.32.42.28.33-.07.66-.09.99-.07Z"/>
    <path class="cls-4" d="M15.96.55c-.03.07-.03.14-.02.2.02.11.1.21.21.26,1.23.51,2.11,1.58,2.36,2.88.04.19.23.32.42.28.2-.04.32-.23.28-.42-.31-1.53-1.35-2.81-2.8-3.4-.18-.08-.39.01-.46.19Z"/>
  </g>
</svg>